<?xml version="1.0" standalone="no"?><!DOCTYPE svg PUBLIC "-//W3C//DTD SVG 1.1//EN" "http://www.w3.org/Graphics/SVG/1.1/DTD/svg11.dtd"><svg t="1645267308779" class="icon" viewBox="0 0 1024 1024" version="1.1" xmlns="http://www.w3.org/2000/svg" p-id="9569" xmlns:xlink="http://www.w3.org/1999/xlink" width="200" height="200"><defs><style type="text/css"></style></defs><path d="M269.5168 107.1104m38.5024 0l385.8432 0q38.5024 0 38.5024 38.5024l0 732.9792q0 38.5024-38.5024 38.5024l-385.8432 0q-38.5024 0-38.5024-38.5024l0-732.9792q0-38.5024 38.5024-38.5024Z" fill="#EBEBFF" p-id="9570"></path><path d="M294.0928 878.3872V145.6128a38.5024 38.5024 0 0 1 38.5024-38.5024H307.2a38.5024 38.5024 0 0 0-38.5024 38.5024v732.7744A38.5024 38.5024 0 0 0 307.2 917.0944h24.576a38.5024 38.5024 0 0 1-37.6832-38.7072z" fill="#FFFFFF" p-id="9571"></path><path d="M777.216 261.9392a10.24 10.24 0 0 0 10.24-10.24v-61.44a10.24 10.24 0 0 0-10.24-10.24h-11.8784V153.1904a75.5712 75.5712 0 0 0-75.5712-75.5712H312.1152a75.5712 75.5712 0 0 0-75.5712 75.5712v716.8a75.5712 75.5712 0 0 0 75.5712 75.5712h377.6512a75.5712 75.5712 0 0 0 75.5712-75.5712V364.3392h11.8784a10.24 10.24 0 0 0 10.24-10.24v-61.44a10.24 10.24 0 0 0-10.24-10.24h-11.8784v-20.48zM274.2272 870.8096v-716.8a37.6832 37.6832 0 0 1 37.6832-37.6832h94.4128v6.144a29.696 29.696 0 0 0 29.9008 28.8768h129.4336a29.696 29.696 0 0 0 29.696-29.696v-6.144h94.4128a37.2736 37.2736 0 0 1 18.2272 4.9152A38.2976 38.2976 0 0 1 716.8 145.6128v732.7744a38.2976 38.2976 0 0 1-9.6256 25.3952 37.2736 37.2736 0 0 1-18.2272 4.9152h-376.832a37.6832 37.6832 0 0 1-37.888-37.888z" fill="#37348F" p-id="9572"></path><path d="M585.9328 870.8096h-169.984a9.4208 9.4208 0 0 0 0 18.8416h169.984a9.4208 9.4208 0 0 0 0-18.8416z" fill="#37348F" p-id="9573"></path><path d="M330.9568 384m24.576 0l32.768 0q24.576 0 24.576 24.576l0 32.768q0 24.576-24.576 24.576l-32.768 0q-24.576 0-24.576-24.576l0-32.768q0-24.576 24.576-24.576Z" fill="#FF457A" p-id="9574"></path><path d="M459.9808 384m24.576 0l32.768 0q24.576 0 24.576 24.576l0 32.768q0 24.576-24.576 24.576l-32.768 0q-24.576 0-24.576-24.576l0-32.768q0-24.576 24.576-24.576Z" fill="#47E289" p-id="9575"></path><path d="M589.0048 384m24.576 0l32.768 0q24.576 0 24.576 24.576l0 32.768q0 24.576-24.576 24.576l-32.768 0q-24.576 0-24.576-24.576l0-32.768q0-24.576 24.576-24.576Z" fill="#F4D240" p-id="9576"></path><path d="M330.9568 502.784m24.576 0l32.768 0q24.576 0 24.576 24.576l0 32.768q0 24.576-24.576 24.576l-32.768 0q-24.576 0-24.576-24.576l0-32.768q0-24.576 24.576-24.576Z" fill="#5CBDFF" p-id="9577"></path><path d="M459.9808 502.784m24.576 0l32.768 0q24.576 0 24.576 24.576l0 32.768q0 24.576-24.576 24.576l-32.768 0q-24.576 0-24.576-24.576l0-32.768q0-24.576 24.576-24.576Z" fill="#FF457A" p-id="9578"></path><path d="M589.0048 502.784m24.576 0l32.768 0q24.576 0 24.576 24.576l0 32.768q0 24.576-24.576 24.576l-32.768 0q-24.576 0-24.576-24.576l0-32.768q0-24.576 24.576-24.576Z" fill="#5CBDFF" p-id="9579"></path></svg>